<?xml version="1.0" encoding="UTF-8"?>
<svg id="Layer_2" data-name="Layer 2" xmlns="http://www.w3.org/2000/svg" viewBox="0 0 1164.94 1164.94">
  <defs>
    <style>
      .cls-1 {
        fill: #e5e5e5;
        stroke: #0031bc;
        stroke-miterlimit: 10;
        stroke-width: 20px;
      }

      .cls-2 {
        fill: #0031bc;
      }
    </style>
  </defs>
  <g id="Layer_1-2" data-name="Layer 1">
    <circle class="cls-1" cx="582.47" cy="582.47" r="572.47"/>
    <g>
      <g>
        <path class="cls-2" d="M724.29,670.76c-3.06,7.25-5.37,15.95-8.88,23.03-3.26,6.73-8.37,15.19-12.1,22.32-3.77,7.37-9.23,13.43-14.45,19.89-12.36,14.46-27.85,27.29-45.72,34.37-18.87,8.42-37.37,11.75-57.89,9.21-36.11-1.66-70.04-25.22-79.96-60.63-3.27-10.69-4.35-21.51-4.04-32.54-.12-10.49-.06-20.86.02-31.03-.07-20.36-.96-39.82-13.36-57.29-19.88-28.97-64.57-33.14-92.17-13.04-3.77,2.69-6.92,5.97-10.08,9.23-4.38,4.54-7.4,1.36-10.56-2.44-2.81-3.17-6.24-6.2-9.68-8.66-43.73-27.21-100.55-1.79-106.77,50.1-.62,32.67-.39,65.44-.49,98.14.08,2.06-.13,4.57,1.4,6.01,1.43.93,3.6.87,5.58.91,2.56.01,5.22-.02,7.79.08,5.53.11,9.35.36,14.41-.13,5.21-.4,5.63-2.99,5.61-7.61.13-27.16.07-50.93.21-78.53-.14-9.73.79-14.83,3.55-23.34,3.02-8.06,8.21-16.2,16.58-19.52,9.82-4.19,21.75-4.2,31.28.68,15.15,8.08,17.91,26.71,17.67,42.01.19,27.64-.27,54.68.19,82.44.04,4.65,3.99,3.82,7.45,3.92,5.93-.05,15.92-.1,21.34-.16,1.51-.06,3.33,0,4.41-1.08,2.11-3.11,1.12-8.27,1.4-11.98-.18-17.51.14-35.18.14-52.58.2-22.98-3.23-55.13,23.86-64.46,19.78-6.78,38.18,3.27,42.91,23.69,3.1,14.39,1.77,29.38,2.04,43.94-.03,6.66,0,13.74.16,19.76-.05,6.32.17,12.38,1.52,18.89,1.28,7.23,2.7,14.53,5.37,21.4,4.56,11.15,10.11,22.21,17.36,31.85,7.47,9.2,16.28,17.25,25.74,24.05,7.57,5.13,15.99,9.43,24.5,13.02,56.96,22.24,125.99,7.4,161.67-44.16,5.56-7.09,9.6-15.03,12.95-23.43,4.46-9.19,6.67-19.9,8.39-30,1.39-9.71,1.53-19.88,1.68-29.73.05-3.43.25-8.45-1-6.66l-.04.05Z"/>
        <path class="cls-2" d="M828.1,692.47c.15-13.26-.23-26.36,0-39.71.84-21.92-2.71-45.28-18.32-61.85-22.48-22.23-60.66-22.73-87.74-8.89-14.86,7.62-25.32,22.26-30.97,37.68-5.61,19.82-3.19,41.39-3.32,62.03-.56,9.14-1.47,18.67-3.54,27.56-.73,5.29-3.89,10.73-4.19,15.84,1.43,1.02,3.74-2.24,4.92-3.35,13.54-15.41,22.55-34.41,29.42-53.5,4.52-13.08,5.98-27.21,12.53-39.5,8.63-18.06,31.93-26.97,49.61-16.61,16.43,11.08,15.66,32.79,15.31,50.47.09,24.25-.03,48.03.07,71.25-.26,3.03,2.52,3.06,5.82,3.08,6.77,0,18.75.04,24.76,0,4.62.42,5.74-2.36,5.7-6.63.13-12.63.18-25.21-.05-37.75v-.12Z"/>
        <path class="cls-2" d="M670.43,669.39c1.34-1.8,1.79-5.44,1.96-7.9.39-6.22.08-11.5-.48-17.69-1.71-30.1-19.72-57.84-48.91-67.72-22.43-6.55-48.09-4.86-67.99,8.06-5.14,3.32-10.26,6.87-14.42,11.37-7.19,7.88-13.67,17.7-17.8,27.52-7.57,21.83-7.5,46.57.31,68.31,4.56,11.72,12.39,22.46,22.14,30.79,5.74,5.15,13.7,8.44,20.53,12.08,26.98,12.06,62.13,8.86,85.85-9.13,3.88-2.82,8.2-5.92,10.95-9.47,3.62-4.46-.02-8.41-3.59-11.43-2.58-2.38-4.85-4.55-7.4-7-3.17-3.07-7.69-8.36-12.2-4.38-1.69,1.35-3.29,2.94-5.05,4.23-3.21,2.46-7.02,4.2-10.87,5.72-16.33,7.19-36.25,4.99-50.76-5.29-6.64-5.46-11.91-13.42-14.54-21.64-.73-3.79.62-5.44,3.6-5.26,13.34,0,91.7-.05,105.57-.06,1.19.02,2.27-.14,3.08-1.13ZM621.52,614.17c6.75,5.94,12.67,17.1,12.12,25.89-.27.98-1.12,1-2.01,1.01-11.67-.13-62.54.28-74.11-.13-.81-.26-.9-1.37-.59-3.14,1.04-6.05,5.12-12.71,8.89-17.83,4.13-5.25,9.69-9.32,15.93-11.65,12.92-4.42,29.19-3.33,39.77,5.85Z"/>
        <path class="cls-2" d="M984.46,578.28c-7.66-1.6-22.55-.14-30.52-.63-1.34.06-3.07-.16-3.94.85-1.45,10.57-.07,27.21-.52,38.32-.02,12.6.03,26.26-.06,38.72-.27,11.13.56,21.98-4.31,32.1-12.13,25.48-54.17,20.52-58.78-7.83-2.78-12.98-1.29-26.58-1.68-39.49-.34-20.21.74-41.12-.26-61.17-.62-1.57-2.45-1.36-3.93-1.44-6.34-.03-21.4-.05-27.98-.06-3.32-.14-4.94.48-4.63,4.66-.03,21.55.08,43.91-.01,65.69-.34,23.93-1.26,49.97,15.51,68.81,28.65,34.54,93.22,30.45,113.34-11.26,8.97-17.06,8.39-36.7,8.34-55.61.06-11.77-.1-24.04-.05-35.7-.54-8.34,1.25-27.44-.49-35.9l-.04-.04Z"/>
        <path class="cls-2" d="M234.23,511.91c-.63-9.81-1.35-19.63-2.01-29.45-1.07-4.8.65-26.4-5.64-25.31-4.9,2.42-2.61,26.13-3.52,31.88-.18,7.79-.38,16.43-.57,24.75-.11,4.04.19,8.9-4.65,8.86-7.74-1.2-4.06-15.72-5.07-21.49-.16-10.68-.63-19.94-1.04-30.41-.36-5.08.1-7.82-1.06-11.48-2.05-4.43-5.35-1.82-5.91,2.1-2.09,14.46-1.67,29.12-2.45,43.8-.8,6.03.82,11.8-3.42,16.17-1.62,1.43-4.78,1.58-5.9-.13-1.93-11.83-.53-45.95-1.22-58.61.74-4.98-4.04-8.45-6.6-2.16-2.83,20.99-4.25,42.49-5.12,63.73-2.94,33.8,11.94,29.17,16.6,49.92,1.08,13.1.69,26.25-.48,39.26-.98,27.78-3.77,55.53-4.44,83.29.9,14.88-8.78,40.01,9.12,47.11,10.29,3.92,21.44-4.48,21.49-15.33.4-11.11-1.01-23.64-1.4-35.11-.87-20.51-1.87-41.28-2.63-61.8.14-19.76-3.51-39.88-.23-59.5,1.15-5.29,4.59-9.33,7.95-13.66,10.8-12.9,9.57-30.71,8.19-46.26v-.16Z"/>
      </g>
      <g>
        <path class="cls-2" d="M471.76,521v-14.76c0-1.91,1.55-3.46,3.46-3.46l239.28-.21c1.91,0,3.47,1.55,3.47,3.46v14.84c0,1.91-1.55,3.46-3.46,3.46l-239.28.14c-1.91,0-3.46-1.55-3.46-3.46Z"/>
        <path class="cls-2" d="M670.66,413.39c-15.47-17.04-35.66-28.43-58.38-32.47-2.32-.42-3.61-2.99-2.48-5.03,3.79-6.83,2.69-15.22-2.95-20.76-6.74-6.6-17.63-6.49-24.21.25-5.44,5.55-6.49,13.82-2.71,20.52,1.15,2.04-.15,4.6-2.45,5.02-32.99,5.99-59.87,26.87-75.02,56.73-8.55,17.15-12.41,35.89-11.57,55.18.09,1.85,1.61,3.33,3.48,3.33h12.18c1.81-.01,3.32-1.39,3.45-3.18,1.18-15.45,4.04-30.29,9.25-44.68,4.55-11.47,10.12-21.74,18.23-31.05,6.21-7.16,13.39-13.28,21.28-18.33,3.54-2.27,7.26,2.59,4.2,5.46-.07.07-.14.12-.2.19-5.37,5.21-9.96,10.39-14.46,16.45-15.03,21.35-20.52,45.47-22.9,71.34-.18,2.03,1.41,3.79,3.45,3.79l166.53.02c1.86,0,3.38-1.45,3.46-3.31,1.4-29.37-8.55-57.89-28.17-79.47ZM622.45,453.35l-30.05,17.35c-5.26,3.03-11.83-.76-11.83-6.84v-34.7c0-6.08,6.58-9.87,11.83-6.83l30.05,17.34c5.26,3.03,5.26,10.63,0,13.66Z"/>
      </g>
    </g>
  </g>
</svg>